<svg height="460pt" viewBox="-33 0 460 460.501" width="460pt" xmlns="http://www.w3.org/2000/svg"><path d="m394.144531 403.25-45.773437-258.394531c-2.375-15.332031-15.605469-26.617188-31.121094-26.554688h-31.972656v60.476563c0 3.867187-3.132813 7-7 7-3.863282 0-7-3.132813-7-7v-60.476563h-148.054688v60.476563c0 3.867187-3.132812 7-7 7-3.867187 0-7-3.132813-7-7v-60.476563h-31.972656c-15.515625-.0625-28.746094 11.222657-31.121094 26.554688l-45.769531 258.394531c-.074219.402344-.109375.8125-.109375 1.21875.039062 30.929688 25.101562 55.996094 56.03125 56.03125h281.9375c30.929688-.035156 55.996094-25.101562 56.03125-56.03125 0-.40625-.035156-.816406-.105469-1.21875zm-196.894531-1c-53.570312 0-97-43.425781-97-97 0-53.570312 43.429688-97 97-97s97 43.429688 97 97c-.058594 53.546875-43.453125 96.941406-97 97zm0 0"/><path d="m197.25 222.25c-45.839844 0-83 37.160156-83 83s37.160156 83 83 83 83-37.160156 83-83c-.050781-45.816406-37.179688-82.949219-83-83zm52.75 62.238281-59.796875 57.121094c-2.75 2.628906-7.097656 2.578125-9.785156-.109375l-33.925781-33.921875c-2.734376-2.734375-2.734376-7.167969 0-9.902344 2.730468-2.734375 7.164062-2.734375 9.898437 0l29.085937 29.085938 54.855469-52.398438c1.804688-1.753906 4.410157-2.40625 6.824219-1.707031 2.417969.699219 4.273438 2.640625 4.863281 5.085938.585938 2.449218-.183593 5.019531-2.019531 6.742187zm0 0"/><path d="m123.222656 88.027344c0-40.882813 33.144532-74.027344 74.027344-74.027344 40.886719 0 74.027344 33.144531 74.027344 74.027344v30.273437h14v-30.273437c0-48.617188-39.410156-88.027344-88.027344-88.027344s-88.027344 39.410156-88.027344 88.027344v30.273437h14zm0 0"/></svg>